<svg id="visual" viewBox="0 0 900 900" width="900" height="900" xmlns="http://www.w3.org/2000/svg" xmlns:xlink="http://www.w3.org/1999/xlink" version="1.1"><rect x="0" y="0" width="900" height="900" fill="#040f17"></rect><defs><linearGradient id="grad1_0" x1="0%" y1="0%" x2="100%" y2="100%"><stop offset="30%" stop-color="#efefef" stop-opacity="1"></stop><stop offset="70%" stop-color="#efefef" stop-opacity="1"></stop></linearGradient></defs><defs><linearGradient id="grad1_1" x1="0%" y1="0%" x2="100%" y2="100%"><stop offset="30%" stop-color="#efefef" stop-opacity="1"></stop><stop offset="70%" stop-color="#c3c5c6" stop-opacity="1"></stop></linearGradient></defs><defs><linearGradient id="grad1_2" x1="0%" y1="0%" x2="100%" y2="100%"><stop offset="30%" stop-color="#999c9f" stop-opacity="1"></stop><stop offset="70%" stop-color="#c3c5c6" stop-opacity="1"></stop></linearGradient></defs><defs><linearGradient id="grad1_3" x1="0%" y1="0%" x2="100%" y2="100%"><stop offset="30%" stop-color="#999c9f" stop-opacity="1"></stop><stop offset="70%" stop-color="#71757a" stop-opacity="1"></stop></linearGradient></defs><defs><linearGradient id="grad1_4" x1="0%" y1="0%" x2="100%" y2="100%"><stop offset="30%" stop-color="#4b5156" stop-opacity="1"></stop><stop offset="70%" stop-color="#71757a" stop-opacity="1"></stop></linearGradient></defs><defs><linearGradient id="grad1_5" x1="0%" y1="0%" x2="100%" y2="100%"><stop offset="30%" stop-color="#4b5156" stop-opacity="1"></stop><stop offset="70%" stop-color="#282f35" stop-opacity="1"></stop></linearGradient></defs><defs><linearGradient id="grad1_6" x1="0%" y1="0%" x2="100%" y2="100%"><stop offset="30%" stop-color="#040f17" stop-opacity="1"></stop><stop offset="70%" stop-color="#282f35" stop-opacity="1"></stop></linearGradient></defs><defs><linearGradient id="grad2_0" x1="0%" y1="0%" x2="100%" y2="100%"><stop offset="30%" stop-color="#efefef" stop-opacity="1"></stop><stop offset="70%" stop-color="#efefef" stop-opacity="1"></stop></linearGradient></defs><defs><linearGradient id="grad2_1" x1="0%" y1="0%" x2="100%" y2="100%"><stop offset="30%" stop-color="#c3c5c6" stop-opacity="1"></stop><stop offset="70%" stop-color="#efefef" stop-opacity="1"></stop></linearGradient></defs><defs><linearGradient id="grad2_2" x1="0%" y1="0%" x2="100%" y2="100%"><stop offset="30%" stop-color="#c3c5c6" stop-opacity="1"></stop><stop offset="70%" stop-color="#999c9f" stop-opacity="1"></stop></linearGradient></defs><defs><linearGradient id="grad2_3" x1="0%" y1="0%" x2="100%" y2="100%"><stop offset="30%" stop-color="#71757a" stop-opacity="1"></stop><stop offset="70%" stop-color="#999c9f" stop-opacity="1"></stop></linearGradient></defs><defs><linearGradient id="grad2_4" x1="0%" y1="0%" x2="100%" y2="100%"><stop offset="30%" stop-color="#71757a" stop-opacity="1"></stop><stop offset="70%" stop-color="#4b5156" stop-opacity="1"></stop></linearGradient></defs><defs><linearGradient id="grad2_5" x1="0%" y1="0%" x2="100%" y2="100%"><stop offset="30%" stop-color="#282f35" stop-opacity="1"></stop><stop offset="70%" stop-color="#4b5156" stop-opacity="1"></stop></linearGradient></defs><defs><linearGradient id="grad2_6" x1="0%" y1="0%" x2="100%" y2="100%"><stop offset="30%" stop-color="#282f35" stop-opacity="1"></stop><stop offset="70%" stop-color="#040f17" stop-opacity="1"></stop></linearGradient></defs><g transform="translate(900, 0)"><path d="M0 636.4C-22.3 587.5 -44.5 538.6 -61.7 508.3C-78.9 477.9 -91 466 -122.3 496.2C-153.6 526.3 -204.1 598.3 -225.7 595C-247.2 591.8 -239.7 513.1 -252.8 481.7C-265.9 450.2 -299.5 465.9 -310.2 449.3C-320.9 432.8 -308.7 383.9 -326.3 368.3C-343.9 352.7 -391.3 370.4 -399.7 354.1C-408.1 337.9 -377.6 287.7 -386 266.4C-394.4 245.2 -441.6 252.9 -457.8 240.3C-473.9 227.6 -458.9 194.6 -442.3 167.7C-425.6 140.9 -407.4 120.2 -430.1 106C-452.9 91.9 -516.7 84.3 -557.9 67.7C-599.1 51.2 -617.8 25.6 -636.4 0L0 0Z" fill="#181f25"></path><path d="M0 545.5C-19.1 503.6 -38.2 461.7 -52.9 435.7C-67.6 409.6 -78 399.5 -104.8 425.3C-131.7 451.1 -175 512.8 -193.4 510C-211.9 507.2 -205.5 439.8 -216.7 412.9C-227.9 385.9 -256.7 399.4 -265.9 385.2C-275 370.9 -264.6 329 -279.6 315.7C-294.7 302.3 -335.4 317.5 -342.6 303.5C-349.8 289.6 -323.7 246.6 -330.8 228.4C-338 210.2 -378.6 216.8 -392.4 205.9C-406.2 195.1 -393.3 166.8 -379.1 143.8C-364.8 120.7 -349.2 103 -368.7 90.9C-388.2 78.8 -442.9 72.3 -478.2 58.1C-513.5 43.9 -529.5 21.9 -545.5 0L0 0Z" fill="#3a3f45"></path><path d="M0 454.6C-15.9 419.7 -31.8 384.7 -44.1 363C-56.4 341.4 -65 332.9 -87.4 354.4C-109.7 375.9 -145.8 427.4 -161.2 425C-176.6 422.7 -171.2 366.5 -180.6 344.1C-189.9 321.6 -213.9 332.8 -221.5 321C-229.2 309.1 -220.5 274.2 -233 263C-245.6 251.9 -279.5 264.5 -285.5 252.9C-291.5 241.3 -269.7 205.5 -275.7 190.3C-281.7 175.1 -315.5 180.7 -327 171.6C-338.5 162.6 -327.8 139 -315.9 119.8C-304 100.6 -291 85.8 -307.2 75.7C-323.5 65.6 -369.1 60.2 -398.5 48.4C-427.9 36.5 -441.3 18.3 -454.6 0L0 0Z" fill="#5e6368"></path><path d="M0 363.7C-12.7 335.7 -25.4 307.8 -35.3 290.4C-45.1 273.1 -52 266.3 -69.9 283.5C-87.8 300.7 -116.6 341.9 -129 340C-141.3 338.2 -137 293.2 -144.5 275.3C-151.9 257.3 -171.1 266.3 -177.2 256.8C-183.3 247.3 -176.4 219.4 -186.4 210.4C-196.5 201.5 -223.6 211.6 -228.4 202.3C-233.2 193.1 -215.8 164.4 -220.6 152.2C-225.3 140.1 -252.4 144.5 -261.6 137.3C-270.8 130.1 -262.2 111.2 -252.7 95.8C-243.2 80.5 -232.8 68.7 -245.8 60.6C-258.8 52.5 -295.2 48.2 -318.8 38.7C-342.4 29.2 -353 14.6 -363.7 0L0 0Z" fill="#85888c"></path><path d="M0 272.7C-9.5 251.8 -19.1 230.8 -26.4 217.8C-33.8 204.8 -39 199.7 -52.4 212.6C-65.8 225.5 -87.5 256.4 -96.7 255C-105.9 253.6 -102.7 219.9 -108.3 206.4C-113.9 193 -128.3 199.7 -132.9 192.6C-137.5 185.5 -132.3 164.5 -139.8 157.8C-147.4 151.1 -167.7 158.7 -171.3 151.8C-174.9 144.8 -161.8 123.3 -165.4 114.2C-169 105.1 -189.3 108.4 -196.2 103C-203.1 97.5 -196.7 83.4 -189.5 71.9C-182.4 60.4 -174.6 51.5 -184.3 45.4C-194.1 39.4 -221.4 36.1 -239.1 29C-256.8 21.9 -264.8 11 -272.7 0L0 0Z" fill="#aeb0b3"></path><path d="M0 181.8C-6.4 167.9 -12.7 153.9 -17.6 145.2C-22.5 136.5 -26 133.2 -34.9 141.8C-43.9 150.4 -58.3 170.9 -64.5 170C-70.6 169.1 -68.5 146.6 -72.2 137.6C-76 128.6 -85.6 133.1 -88.6 128.4C-91.7 123.6 -88.2 109.7 -93.2 105.2C-98.2 100.8 -111.8 105.8 -114.2 101.2C-116.6 96.5 -107.9 82.2 -110.3 76.1C-112.7 70.1 -126.2 72.3 -130.8 68.6C-135.4 65 -131.1 55.6 -126.4 47.9C-121.6 40.2 -116.4 34.3 -122.9 30.3C-129.4 26.3 -147.6 24.1 -159.4 19.4C-171.2 14.6 -176.5 7.3 -181.8 0L0 0Z" fill="#d9dada"></path><path d="M0 90.9C-3.2 83.9 -6.4 76.9 -8.8 72.6C-11.3 68.3 -13 66.6 -17.5 70.9C-21.9 75.2 -29.2 85.5 -32.2 85C-35.3 84.5 -34.2 73.3 -36.1 68.8C-38 64.3 -42.8 66.6 -44.3 64.2C-45.8 61.8 -44.1 54.8 -46.6 52.6C-49.1 50.4 -55.9 52.9 -57.1 50.6C-58.3 48.3 -53.9 41.1 -55.1 38.1C-56.3 35 -63.1 36.1 -65.4 34.3C-67.7 32.5 -65.6 27.8 -63.2 24C-60.8 20.1 -58.2 17.2 -61.4 15.1C-64.7 13.1 -73.8 12 -79.7 9.7C-85.6 7.3 -88.3 3.7 -90.9 0L0 0Z" fill="#efefef"></path></g><g transform="translate(0, 900)"><path d="M0 -636.4C21.3 -591 42.5 -545.7 63.9 -526.1C85.3 -506.6 106.8 -512.9 124.4 -504.9C142.1 -496.8 156 -474.4 181.6 -478.7C207.1 -483.1 244.3 -514.2 277 -527.7C309.6 -541.2 337.7 -537.1 361.5 -523.7C385.3 -510.4 404.7 -487.9 389.9 -440.1C375.1 -392.4 326.1 -319.3 345.8 -306.4C365.6 -293.4 454.1 -340.5 501.2 -346C548.3 -351.4 554.1 -315.3 518.9 -272.3C483.7 -229.3 407.6 -179.4 417 -158.2C426.5 -136.9 521.4 -144.5 530.1 -130.7C538.8 -116.9 461.3 -81.7 464.6 -56.4C467.9 -31.1 552.2 -15.5 636.4 0L0 0Z" fill="#181f25"></path><path d="M0 -545.5C18.2 -506.6 36.4 -467.7 54.8 -451C73.1 -434.2 91.5 -439.7 106.7 -432.8C121.8 -425.9 133.7 -406.6 155.6 -410.3C177.5 -414.1 209.4 -440.8 237.4 -452.3C265.4 -463.9 289.5 -460.4 309.9 -448.9C330.2 -437.5 346.9 -418.2 334.2 -377.2C321.5 -336.3 279.5 -273.7 296.4 -262.6C313.3 -251.5 389.2 -291.8 429.6 -296.5C470 -301.2 474.9 -270.3 444.8 -233.4C414.6 -196.6 349.4 -153.7 357.4 -135.6C365.5 -117.4 446.9 -123.8 454.4 -112C461.9 -100.2 395.4 -70.1 398.2 -48.4C401.1 -26.6 473.3 -13.3 545.5 0L0 0Z" fill="#3a3f45"></path><path d="M0 -454.6C15.2 -422.2 30.4 -389.8 45.6 -375.8C60.9 -361.9 76.3 -366.4 88.9 -360.6C101.5 -354.9 111.4 -338.8 129.7 -341.9C147.9 -345.1 174.5 -367.3 197.8 -377C221.2 -386.6 241.2 -383.6 258.2 -374.1C275.2 -364.6 289.1 -348.5 278.5 -314.4C267.9 -280.3 232.9 -228.1 247 -218.8C261.1 -209.6 324.3 -243.2 358 -247.1C391.7 -251 395.8 -225.2 370.6 -194.5C345.5 -163.8 291.1 -128.1 297.9 -113C304.6 -97.8 372.5 -103.2 378.7 -93.3C384.9 -83.5 329.5 -58.4 331.8 -40.3C334.2 -22.2 394.4 -11.1 454.6 0L0 0Z" fill="#5e6368"></path><path d="M0 -363.7C12.1 -337.7 24.3 -311.8 36.5 -300.6C48.7 -289.5 61 -293.1 71.1 -288.5C81.2 -283.9 89.1 -271.1 103.7 -273.6C118.3 -276 139.6 -293.8 158.3 -301.6C176.9 -309.3 193 -306.9 206.6 -299.3C220.2 -291.7 231.3 -278.8 222.8 -251.5C214.4 -224.2 186.3 -182.5 197.6 -175.1C208.9 -167.7 259.5 -194.5 286.4 -197.7C313.3 -200.8 316.6 -180.2 296.5 -155.6C276.4 -131 232.9 -102.5 238.3 -90.4C243.7 -78.3 298 -82.6 302.9 -74.7C307.9 -66.8 263.6 -46.7 265.5 -32.2C267.4 -17.8 315.5 -8.9 363.7 0L0 0Z" fill="#85888c"></path><path d="M0 -272.7C9.1 -253.3 18.2 -233.9 27.4 -225.5C36.5 -217.1 45.8 -219.8 53.3 -216.4C60.9 -212.9 66.9 -203.3 77.8 -205.2C88.8 -207 104.7 -220.4 118.7 -226.2C132.7 -232 144.7 -230.2 154.9 -224.5C165.1 -218.7 173.5 -209.1 167.1 -188.6C160.8 -168.2 139.7 -136.9 148.2 -131.3C156.7 -125.7 194.6 -145.9 214.8 -148.3C235 -150.6 237.5 -135.1 222.4 -116.7C207.3 -98.3 174.7 -76.9 178.7 -67.8C182.8 -58.7 223.5 -61.9 227.2 -56C230.9 -50.1 197.7 -35 199.1 -24.2C200.5 -13.3 236.6 -6.7 272.7 0L0 0Z" fill="#aeb0b3"></path><path d="M0 -181.8C6.1 -168.9 12.1 -155.9 18.3 -150.3C24.4 -144.7 30.5 -146.6 35.6 -144.3C40.6 -142 44.6 -135.5 51.9 -136.8C59.2 -138 69.8 -146.9 79.1 -150.8C88.5 -154.6 96.5 -153.5 103.3 -149.6C110.1 -145.8 115.6 -139.4 111.4 -125.7C107.2 -112.1 93.2 -91.2 98.8 -87.5C104.4 -83.8 129.7 -97.3 143.2 -98.8C156.7 -100.4 158.3 -90.1 148.3 -77.8C138.2 -65.5 116.5 -51.2 119.1 -45.2C121.8 -39.1 149 -41.3 151.5 -37.3C154 -33.4 131.8 -23.4 132.7 -16.1C133.7 -8.9 157.8 -4.4 181.8 0L0 0Z" fill="#d9dada"></path><path d="M0 -90.9C3 -84.4 6.1 -78 9.1 -75.2C12.2 -72.4 15.3 -73.3 17.8 -72.1C20.3 -71 22.3 -67.8 25.9 -68.4C29.6 -69 34.9 -73.5 39.6 -75.4C44.2 -77.3 48.2 -76.7 51.6 -74.8C55 -72.9 57.8 -69.7 55.7 -62.9C53.6 -56.1 46.6 -45.6 49.4 -43.8C52.2 -41.9 64.9 -48.6 71.6 -49.4C78.3 -50.2 79.2 -45 74.1 -38.9C69.1 -32.8 58.2 -25.6 59.6 -22.6C60.9 -19.6 74.5 -20.6 75.7 -18.7C77 -16.7 65.9 -11.7 66.4 -8.1C66.8 -4.4 78.9 -2.2 90.9 0L0 0Z" fill="#efefef"></path></g></svg>