<svg xmlns="http://www.w3.org/2000/svg" version="1.1" xmlns:xlink="http://www.w3.org/1999/xlink" width="200" height="200"><svg xmlns="http://www.w3.org/2000/svg" version="1.1" xmlns:xlink="http://www.w3.org/1999/xlink" viewBox="0 0 200 200"><rect width="200" height="200" fill="url('#gradient')"></rect><defs><linearGradient id="SvgjsLinearGradient1001" gradientTransform="rotate(0 0.5 0.5)"><stop offset="0%" stop-color="#ffffff"></stop><stop offset="100%" stop-color="#ffffff"></stop></linearGradient></defs><g><g fill="#31beff" transform="matrix(1.426183844011142,0,0,1.426183844011142,8.467833108888698,110.13741101660769)" stroke="#31beff" stroke-width="2"><path d="M6.69-4.82L4.50-4.82L4.50 0L1.07 0L1.07-14.22L6.75-14.22Q8.38-14.22 9.63-13.62Q10.89-13.02 11.58-11.91Q12.27-10.80 12.27-9.39L12.27-9.39Q12.27-7.31 10.78-6.07Q9.29-4.82 6.69-4.82L6.69-4.82ZM4.50-11.57L4.50-7.47L6.75-7.47Q7.74-7.47 8.27-7.97Q8.79-8.47 8.79-9.38L8.79-9.38Q8.79-10.37 8.25-10.97Q7.71-11.56 6.79-11.57L6.79-11.57L4.50-11.57ZM25.98-14.22L25.98 0L22.57 0L22.57-5.94L17.52-5.94L17.52 0L14.09 0L14.09-14.22L17.52-14.22L17.52-8.57L22.57-8.57L22.57-14.22L25.98-14.22ZM40.19-7.47L40.19-6.82Q40.19-4.74 39.41-3.13Q38.64-1.53 37.22-0.67Q35.80 0.20 33.98 0.20Q32.17 0.20 30.76-0.64Q29.36-1.47 28.57-3.03Q27.78-4.58 27.74-6.59L27.74-6.59L27.74-7.39Q27.74-9.48 28.51-11.08Q29.28-12.68 30.71-13.54Q32.14-14.41 33.96-14.41L33.96-14.41Q35.77-14.41 37.19-13.55Q38.60-12.70 39.39-11.11Q40.18-9.52 40.19-7.47L40.19-7.47ZM36.70-6.76L36.70-7.41Q36.70-9.53 35.99-10.63Q35.28-11.73 33.96-11.73L33.96-11.73Q31.39-11.73 31.24-7.86L31.24-7.86L31.23-6.82Q31.23-4.73 31.92-3.60Q32.62-2.48 33.98-2.48L33.98-2.48Q35.28-2.48 35.99-3.58Q36.69-4.69 36.70-6.76L36.70-6.76ZM52.29-14.22L52.29-11.57L48.02-11.57L48.02 0L44.59 0L44.59-11.57L40.40-11.57L40.40-14.22L52.29-14.22ZM65.50-7.47L65.50-6.82Q65.50-4.74 64.73-3.13Q63.96-1.53 62.53-0.67Q61.11 0.20 59.30 0.20Q57.48 0.20 56.07-0.64Q54.67-1.47 53.88-3.03Q53.10-4.58 53.06-6.59L53.06-6.59L53.06-7.39Q53.06-9.48 53.82-11.08Q54.59-12.68 56.02-13.54Q57.45-14.41 59.28-14.41L59.28-14.41Q61.08-14.41 62.50-13.55Q63.92-12.70 64.70-11.11Q65.49-9.52 65.50-7.47L65.50-7.47ZM62.01-6.76L62.01-7.41Q62.01-9.53 61.30-10.63Q60.60-11.73 59.28-11.73L59.28-11.73Q56.70-11.73 56.55-7.86L56.55-7.86L56.54-6.82Q56.54-4.73 57.24-3.60Q57.93-2.48 59.30-2.48L59.30-2.48Q60.60-2.48 61.30-3.58Q62.00-4.69 62.01-6.76L62.01-6.76ZM76.92 0L72.25 0L72.25-14.22L76.83-14.22Q78.71-14.22 80.21-13.36Q81.72-12.51 82.56-10.95Q83.41-9.39 83.42-7.46L83.42-7.46L83.42-6.81Q83.42-4.85 82.59-3.31Q81.77-1.76 80.27-0.88Q78.77-0.01 76.92 0L76.92 0ZM76.83-11.57L75.67-11.57L75.67-2.64L76.87-2.64Q78.34-2.64 79.13-3.69Q79.92-4.74 79.92-6.81L79.92-6.81L79.92-7.42Q79.92-9.48 79.13-10.53Q78.34-11.57 76.83-11.57L76.83-11.57ZM92.97 0L90.46-5.02L88.60-5.02L88.60 0L85.18 0L85.18-14.22L90.77-14.22Q93.30-14.22 94.73-13.10Q96.15-11.97 96.15-9.92L96.15-9.92Q96.15-8.44 95.55-7.46Q94.95-6.48 93.67-5.88L93.67-5.88L96.64-0.15L96.64 0L92.97 0ZM88.60-11.57L88.60-7.67L90.77-7.67Q91.75-7.67 92.24-8.18Q92.73-8.69 92.73-9.61Q92.73-10.53 92.24-11.05Q91.74-11.57 90.77-11.57L90.77-11.57L88.60-11.57ZM101.88-14.22L101.88 0L98.46 0L98.46-14.22L101.88-14.22ZM106.95-14.22L109.78-3.87L112.61-14.22L116.44-14.22L111.65 0L107.90 0L103.15-14.22L106.95-14.22ZM126.29-8.57L126.29-6.03L120.90-6.03L120.90-2.64L127.27-2.64L127.27 0L117.47 0L117.47-14.22L127.29-14.22L127.29-11.57L120.90-11.57L120.90-8.57L126.29-8.57Z"></path></g></g></svg><style>@media (prefers-color-scheme: light) { :root { filter: none; } }
@media (prefers-color-scheme: dark) { :root { filter: none; } }
</style></svg>